<?xml version="1.0" standalone="no"?>
<!DOCTYPE svg PUBLIC "-//W3C//DTD SVG 20010904//EN"
 "http://www.w3.org/TR/2001/REC-SVG-20010904/DTD/svg10.dtd">
<svg version="1.0" xmlns="http://www.w3.org/2000/svg"
 width="333.000000pt" height="333.000000pt" viewBox="0 0 333.000000 333.000000"
 preserveAspectRatio="xMidYMid meet">
<metadata>
Created by potrace 1.11, written by Peter Selinger 2001-2013
</metadata>
<g transform="translate(0.000000,333.000000) scale(0.100000,-0.100000)"
fill="#000000" stroke="none">
<path d="M80 3278 c-3 -272 1 -1542 4 -1573 3 -22 7 -65 10 -95 6 -54 10 -77
22 -122 4 -13 7 -33 8 -45 0 -13 4 -23 9 -23 4 0 6 -3 5 -7 -1 -5 6 -35 16
-68 10 -33 19 -66 19 -72 0 -7 4 -13 9 -13 4 0 8 -6 8 -14 0 -7 7 -26 14 -42
8 -15 13 -31 10 -36 -3 -4 -2 -8 3 -8 13 0 35 -58 27 -71 -4 -7 -3 -9 4 -5 11
6 63 -77 65 -106 1 -9 4 -16 7 -15 3 1 6 -2 8 -8 2 -5 10 -14 18 -18 8 -4 14
-13 14 -18 0 -6 -5 -7 -12 -3 -7 4 -8 3 -4 -5 4 -6 11 -9 16 -6 9 6 50 -46 50
-64 0 -6 5 -11 11 -11 6 0 9 -7 6 -14 -4 -10 -1 -13 8 -10 13 5 42 -32 37 -49
-1 -4 2 -6 7 -5 11 4 71 -59 64 -66 -4 -3 -1 -6 6 -6 16 0 66 -47 66 -62 0 -6
8 -12 17 -14 9 -1 29 -14 45 -28 15 -14 36 -29 46 -32 9 -3 15 -10 12 -15 -4
-5 1 -9 9 -9 9 0 16 -4 16 -10 0 -5 7 -10 15 -10 8 0 15 -4 15 -10 0 -5 6 -10
13 -10 13 0 90 -48 119 -74 9 -8 18 -12 21 -10 7 7 57 -18 57 -28 0 -4 3 -7 8
-7 21 4 32 -2 26 -13 -5 -8 -2 -9 10 -5 10 4 32 1 49 -7 18 -8 40 -17 51 -20
16 -5 16 -9 5 -24 -13 -16 -12 -16 6 -1 21 16 55 15 55 -2 0 -6 5 -7 10 -4 5
3 10 0 10 -7 0 -9 3 -9 10 2 5 8 10 10 10 3 0 -6 8 -9 19 -6 10 3 22 0 25 -6
4 -5 13 -8 21 -4 17 6 21 -12 5 -22 -5 -3 -10 -11 -10 -17 0 -5 8 0 18 12 15
18 25 22 46 16 15 -4 24 -11 21 -16 -3 -5 -1 -12 5 -15 6 -4 9 -3 8 2 -4 11 5
13 60 13 34 0 43 -3 32 -10 -12 -8 -10 -9 7 -7 12 2 25 6 28 9 4 3 19 3 33 -1
33 -8 195 -7 210 3 5 3 13 0 15 -6 4 -9 6 -9 6 1 1 11 5 10 16 -5 13 -16 14
-16 9 -1 -5 13 0 17 22 18 31 1 52 4 92 14 17 4 28 0 37 -12 13 -17 13 -17 12
2 -2 15 4 20 21 19 12 -1 22 3 22 7 0 11 23 7 32 -6 4 -6 8 -2 8 9 0 12 5 16
15 12 8 -3 15 -1 15 5 0 6 5 7 10 4 6 -4 7 -11 4 -17 -4 -7 -2 -8 5 -4 6 4 9
11 7 14 -2 4 20 17 50 29 33 13 52 17 47 9 -4 -6 -1 -4 9 6 21 23 29 23 22 1
-5 -16 -4 -16 5 -2 15 23 109 71 123 63 7 -4 8 -3 4 4 -4 7 -1 12 7 12 8 0 24
9 37 20 12 11 26 17 30 15 5 -3 11 1 13 7 4 10 8 9 17 -2 10 -13 11 -12 6 3
-4 11 1 20 12 24 9 4 26 15 36 25 22 20 41 24 30 6 -4 -7 -3 -8 5 -4 6 4 9 11
6 16 -5 8 52 56 68 58 5 1 18 13 29 27 12 15 27 24 35 21 8 -4 13 0 11 8 -3
15 91 111 105 108 5 -2 6 1 3 6 -3 5 9 24 27 43 18 19 43 51 57 72 14 20 30
35 37 33 8 -3 10 1 6 11 -4 9 0 21 9 27 8 6 15 13 14 16 -2 14 67 119 75 115
5 -4 6 0 4 7 -3 8 6 36 20 63 14 28 25 56 25 63 0 8 5 10 13 6 6 -4 9 -4 5 1
-4 4 -1 22 7 40 7 19 11 36 7 39 -3 3 -1 6 5 6 5 0 10 6 10 13 2 28 28 117 35
117 4 0 5 9 3 20 -2 11 -1 20 3 20 4 0 8 8 9 18 1 9 3 28 6 42 7 36 20 143 20
160 0 8 5 18 11 22 7 5 7 8 -2 8 -7 0 -10 5 -7 11 5 7 10 1379 6 1582 l-1 27
-1580 0 -1580 0 0 -52z"/>
<path d="M2415 390 c3 -5 8 -10 11 -10 2 0 4 5 4 10 0 6 -5 10 -11 10 -5 0 -7
-4 -4 -10z"/>
<path d="M946 368 c3 -5 10 -6 15 -3 13 9 11 12 -6 12 -8 0 -12 -4 -9 -9z"/>
<path d="M2340 370 c-9 -6 -10 -10 -3 -10 6 0 15 5 18 10 8 12 4 12 -15 0z"/>
<path d="M2289 333 c-13 -16 -12 -17 4 -4 16 13 21 21 13 21 -2 0 -10 -8 -17
-17z"/>
<path d="M1170 276 c0 -2 7 -7 16 -10 8 -3 12 -2 9 4 -6 10 -25 14 -25 6z"/>
<path d="M1274 259 c-3 -6 -2 -15 3 -20 5 -5 9 -1 9 11 0 23 -2 24 -12 9z"/>
</g>
</svg>
